# xmcd
#
# Track frame offsets:
#	150
#	28795
#	45687
#	63061
#	82786
#	111149
#	136328
#	161731
#	181313
#	198830
#	218449
#	234822
#	264743
#	296076
#
# Disc length: 4349 seconds
#
# Revision: 1
# Processed by: cddbd v1.5.2PL0 Copyright (c) Steve Scherf et al.
# Submitted via: EasyCDDAExtractor 16.0.6.1
#
DISCID=b810fb0e
DTITLE=Vargas Blues Band - R-698 Madrid - Chicago
DYEAR=1900
DGENRE=blues
TTITLE0=Back Alley Blues
TTITLE1=Born to Be Wild
TTITLE2=Texas Tango
TTITLE3=Illegaly
TTITLE4=Chill Out (Sacalo)
TTITLE5=Amapola Negra
TTITLE6=Del Sur
TTITLE7=Manish Boys
TTITLE8=Hard Times Blues
TTITLE9=Madrid - Memphis
TTITLE10=Body Shock
TTITLE11=Blues Latino
TTITLE12=2001 Blues
TTITLE13=Buenos Aires Blues
EXTD=
EXTT0=
EXTT1=
EXTT2=
EXTT3=
EXTT4=
EXTT5=
EXTT6=
EXTT7=
EXTT8=
EXTT9=
EXTT10=
EXTT11=
EXTT12=
EXTT13=
PLAYORDER=
